<?xml version="1.0" encoding="utf-8"?>
<!-- Generator: Adobe Illustrator 23.0.3, SVG Export Plug-In . SVG Version: 6.00 Build 0)  -->
<svg version="1.1" id="Layer_1" xmlns="http://www.w3.org/2000/svg" xmlns:xlink="http://www.w3.org/1999/xlink" x="0px" y="0px"
	 viewBox="0 0 88.35 105" enable-background="new 0 0 88.35 105" xml:space="preserve">
<g>
	<polygon fill="#EDEDE8" points="54.71,47.17 19.96,59.85 19.96,63.45 54.48,50.86 76.23,61.77 76.23,57.96 	"/>
	<path fill="#EDEDE8" d="M54.48,53.71L24.04,64.8v20.91h49.94V63.48L54.48,53.71z M42.86,81.12H31.92V69.75h10.93V81.12z
		 M53.2,67.47h-3.82v-3.82h3.82V67.47z M53.2,62.58h-3.82v-3.82h3.82V62.58z M58.23,67.47h-3.82v-3.82h3.82V67.47z M58.23,62.58
		h-3.82v-3.82h3.82V62.58z"/>
	<path fill="#F2634D" d="M87.11,48.74C84.06,35.83,73.42,18.35,48.1,16.86c0,0-26.01-1.86-40.64,22.45L7.64,0H0v58.55
		c0,9.48,2.43,18.87,7.42,26.93C13.46,95.24,25.48,105,44.16,105c0,0,23.05,0,36.35-19.77c0.31-0.45,0.6-0.92,0.9-1.39
		C87.9,73.4,89.94,60.7,87.11,48.74 M10.09,45.85c8.44-18.57,31.14-26.42,50.71-17.53c0.49,0.22,0.98,0.46,1.46,0.71
		c-10.1-1.04-25.63,0.48-38.23,13.37C11.79,54.93,12.02,72.87,12.76,80.35C6.33,70.11,4.9,57.28,10.09,45.85 M80.97,78.04
		c-8.44,18.57-31.14,26.42-50.72,17.53c-0.04-0.02-0.09-0.04-0.13-0.06C20.5,91.1,14.64,80.97,15.57,70.43
		c0.92-10.46,5.95-18.63,5.95-18.63s8.85-16.12,29.77-16.12c5.97,0,11.25,1.24,15.71,2.96c9.67,3.72,16.55,12.65,17.08,23
		C84.36,67.14,83.38,72.74,80.97,78.04"/>
</g>
</svg>
